<svg version="1.1" id="Layer_1" xmlns="http://www.w3.org/2000/svg" xmlns:xlink="http://www.w3.org/1999/xlink" x="0px" y="0px"
	 width="100%" viewBox="0 0 512 512" enable-background="new 0 0 512 512" xml:space="preserve">
<path fill="#FFFFFF" opacity="1.000000" stroke="none" 
	d="
M513.000000,181.000000 
	C513.000000,291.973022 513.000000,402.446045 513.000000,512.959534 
	C342.401978,512.959534 171.803925,512.959534 1.102941,512.959534 
	C1.102941,342.443665 1.102941,171.887268 1.102941,1.165426 
	C171.666534,1.165426 342.333252,1.165426 513.000000,1.165426 
	C513.000000,60.862705 513.000000,120.681351 513.000000,181.000000 
M444.038239,105.958076 
	C444.038239,105.958076 444.081024,105.931404 443.809021,105.313957 
	C439.515533,100.338959 435.524658,95.056465 430.856323,90.462387 
	C424.167633,83.880066 417.428589,77.199585 409.912384,71.640961 
	C397.318756,62.327335 384.487030,53.205784 371.035583,45.215343 
	C354.813538,35.579117 337.083374,28.887426 318.732361,24.611032 
	C304.120636,21.206018 289.196899,18.446810 274.266113,17.305651 
	C260.282928,16.236921 246.072906,17.171576 232.030289,18.172716 
	C222.133606,18.878281 212.246552,20.701509 202.536499,22.846436 
	C179.379028,27.961861 157.530441,36.570606 136.966934,48.477364 
	C119.850075,58.388420 103.870697,69.888138 89.916008,83.833885 
	C80.277039,93.466682 71.458183,104.002296 63.012794,114.717667 
	C57.603062,121.581459 53.540146,129.506760 48.281685,137.309174 
	C43.598511,146.615616 38.225140,155.644882 34.356541,165.278427 
	C20.609657,199.510895 14.809258,235.136749 17.052618,272.844666 
	C17.098639,274.230225 17.144657,275.615784 17.069593,277.495331 
	C17.106157,277.660889 17.142721,277.826416 17.347731,278.799011 
	C17.568886,279.397491 17.952782,279.986755 17.987423,280.595825 
	C18.880541,296.299438 22.369864,311.480408 26.802370,326.521637 
	C34.077888,351.210327 45.230335,373.948547 59.977425,395.021484 
	C71.709274,411.785828 85.290802,426.832153 100.732864,440.210114 
	C103.272774,442.410583 106.204704,444.158508 109.237091,446.734009 
	C115.046181,450.874817 120.529755,455.603729 126.730957,459.036102 
	C140.362122,466.581024 153.950958,474.440460 168.285385,480.427795 
	C199.207016,493.343414 231.706726,498.534851 265.227417,497.001953 
	C272.315155,496.677826 279.518097,497.004364 286.462494,495.822998 
	C298.929962,493.702057 311.345367,491.068848 323.595215,487.920898 
	C344.333130,482.591583 363.857483,474.116028 381.839966,462.507111 
	C392.581757,455.572540 402.678986,447.639587 413.657867,439.828674 
	C421.821808,431.667969 430.363556,423.844452 438.036896,415.245941 
	C444.866699,407.592682 451.239319,399.416565 456.916748,390.875000 
	C467.096588,375.559723 475.749023,359.368225 482.003906,341.982697 
	C488.306610,324.464264 493.626709,306.718750 495.808197,287.562714 
	C496.211273,283.641235 496.880676,279.726105 496.974823,275.797241 
	C497.662994,247.076416 496.575897,218.644302 488.206543,190.721375 
	C478.988647,159.967407 465.146606,131.868332 444.876709,106.474281 
	C444.600342,106.286240 444.323944,106.098198 444.038239,105.958076 
z"/>
<path fill="#4090D0" opacity="1.000000" stroke="none" 
	d="
M48.873463,136.956192 
	C53.540146,129.506760 57.603062,121.581459 63.012794,114.717667 
	C71.458183,104.002296 80.277039,93.466682 89.916008,83.833885 
	C103.870697,69.888138 119.850075,58.388420 136.966934,48.477364 
	C157.530441,36.570606 179.379028,27.961861 202.536499,22.846436 
	C212.246552,20.701509 222.133606,18.878281 232.030289,18.172716 
	C246.072906,17.171576 260.282928,16.236921 274.266113,17.305651 
	C289.196899,18.446810 304.120636,21.206018 318.732361,24.611032 
	C337.083374,28.887426 354.813538,35.579117 371.035583,45.215343 
	C384.487030,53.205784 397.318756,62.327335 409.912384,71.640961 
	C417.428589,77.199585 424.167633,83.880066 430.856323,90.462387 
	C435.524658,95.056465 439.515533,100.338959 443.515320,105.642860 
	C438.421021,105.559113 433.482971,103.245316 428.685242,106.856888 
	C421.724060,100.106400 415.097076,93.462982 408.365967,86.926849 
	C407.129822,85.726463 405.470886,84.961479 403.858337,83.694809 
	C402.551666,82.199348 401.516632,80.846962 400.217163,79.833763 
	C383.115326,66.499413 364.748779,55.353386 344.743103,46.814190 
	C318.635651,35.670544 291.436188,29.660498 263.143158,29.145285 
	C251.409637,28.931622 239.506088,29.421270 227.932907,31.219561 
	C213.429031,33.473236 198.950226,36.611652 184.886627,40.799042 
	C165.698639,46.512199 147.889816,55.617428 131.340393,66.936127 
	C123.999153,71.957047 117.097275,77.620369 109.695732,83.138351 
	C96.784821,93.806427 85.557175,105.621475 75.698639,119.151741 
	C71.266380,125.202568 67.135796,131.100464 62.665291,136.847229 
	C57.771500,133.167816 53.348885,136.427551 48.873463,136.956192 
z"/>
<path fill="#236DB7" opacity="1.000000" stroke="none" 
	d="
M413.065979,440.155457 
	C402.678986,447.639587 392.581757,455.572540 381.839966,462.507111 
	C363.857483,474.116028 344.333130,482.591583 323.595215,487.920898 
	C311.345367,491.068848 298.929962,493.702057 286.462494,495.822998 
	C279.518097,497.004364 272.315155,496.677826 265.227417,497.001953 
	C231.706726,498.534851 199.207016,493.343414 168.285385,480.427795 
	C153.950958,474.440460 140.362122,466.581024 126.730957,459.036102 
	C120.529755,455.603729 115.046181,450.874817 109.116493,446.011688 
	C110.272339,444.194672 111.443298,442.352631 112.846291,442.154602 
	C116.180183,441.684052 119.623932,441.991791 123.349030,441.990143 
	C124.109650,442.000610 124.544533,442.006012 125.135757,442.311829 
	C137.438309,449.704285 149.251755,457.460175 161.799759,463.750732 
	C188.252090,477.011841 216.777847,482.991913 246.108780,484.869873 
	C264.868988,486.071014 283.570618,484.199341 301.989838,480.444489 
	C325.563538,475.638885 348.087189,467.777527 368.867126,455.485809 
	C375.811401,451.378113 382.313538,446.522980 389.365784,441.971497 
	C392.800934,439.950500 395.888062,437.967560 399.442169,435.989502 
	C402.875610,435.996460 405.855774,436.177704 408.804871,435.952515 
	C412.039154,435.705566 413.437164,436.935974 413.065979,440.155457 
z"/>
<path fill="#2773BB" opacity="1.000000" stroke="none" 
	d="
M123.023293,441.985046 
	C119.623932,441.991791 116.180183,441.684052 112.846291,442.154602 
	C111.443298,442.352631 110.272339,444.194672 108.975677,445.702454 
	C106.204704,444.158508 103.272774,442.410583 100.732864,440.210114 
	C85.290802,426.832153 71.709274,411.785828 59.977425,395.021484 
	C45.230335,373.948547 34.077888,351.210327 26.802370,326.521637 
	C22.369864,311.480408 18.880541,296.299438 17.987423,280.595825 
	C17.952782,279.986755 17.568886,279.397491 17.408440,278.302399 
	C17.521042,277.704132 17.643318,277.559845 17.612200,277.508484 
	C17.499561,277.322540 17.335400,277.167847 17.190680,277.001343 
	C17.144657,275.615784 17.098639,274.230225 17.483603,272.370697 
	C21.608889,271.266510 25.303188,270.636322 28.998352,270.438904 
	C29.337097,273.914764 29.674978,276.957825 30.014870,280.417664 
	C31.014637,286.889648 32.012394,292.944824 33.003757,299.412109 
	C35.670776,309.882507 38.344189,319.940796 41.046135,330.367126 
	C46.051212,341.823395 51.027756,352.911713 56.039146,364.352661 
	C57.199280,366.728058 58.222401,368.816528 59.471550,370.759705 
	C61.909153,374.551605 64.473190,378.262268 67.026016,382.355621 
	C71.374496,388.470856 75.681816,394.237030 80.136681,400.304993 
	C84.712883,405.760712 88.734940,411.346893 93.656975,415.976196 
	C103.177711,424.930786 113.205597,433.346191 123.023293,441.985046 
z"/>
<path fill="#3684C8" opacity="1.000000" stroke="none" 
	d="
M428.983582,107.000854 
	C433.482971,103.245316 438.421021,105.559113 443.651337,105.951584 
	C444.081024,105.931404 444.038239,105.958076 444.105469,106.157730 
	C444.321259,106.642647 444.541138,106.853554 444.832336,106.990112 
	C465.146606,131.868332 478.988647,159.967407 488.206543,190.721375 
	C496.575897,218.644302 497.662994,247.076416 496.974823,275.797241 
	C496.880676,279.726105 496.211273,283.641235 495.078308,287.750305 
	C490.815826,284.651550 486.820679,287.047089 483.013855,286.585571 
	C482.994171,284.435608 482.983673,282.716064 483.145233,280.616699 
	C483.869202,272.823914 484.421143,265.410858 484.981323,257.537445 
	C484.326813,249.050446 483.664032,241.023834 482.999817,232.548691 
	C481.670807,224.060364 480.343262,216.020554 479.005432,207.576019 
	C475.991547,196.780075 472.987976,186.388885 469.845642,175.668976 
	C468.448853,172.298981 467.425690,169.132355 465.883484,166.242752 
	C462.764557,160.398987 459.364014,154.705521 456.069580,148.564758 
	C450.383148,139.114899 444.706787,130.050339 438.887695,120.675438 
	C435.491211,115.910355 432.237396,111.455597 428.983582,107.000854 
z"/>
<path fill="#2773BB" opacity="1.000000" stroke="none" 
	d="
M483.023071,287.015961 
	C486.820679,287.047089 490.815826,284.651550 494.730194,287.986603 
	C493.626709,306.718750 488.306610,324.464264 482.003906,341.982697 
	C475.749023,359.368225 467.096588,375.559723 456.916748,390.875000 
	C451.239319,399.416565 444.866699,407.592682 438.036896,415.245941 
	C430.363556,423.844452 421.821808,431.667969 413.361938,439.992065 
	C413.437164,436.935974 412.039154,435.705566 408.804871,435.952515 
	C405.855774,436.177704 402.875610,435.996460 399.594635,435.689514 
	C400.083984,434.544830 400.801239,433.595337 401.704803,432.881622 
	C413.859375,423.280670 424.619995,412.316162 434.281616,399.810638 
	C438.706329,393.747650 442.860779,387.877136 447.318420,381.850098 
	C451.080261,375.795746 454.538910,369.897888 458.141846,363.685730 
	C463.185425,352.247498 468.084717,341.123535 473.033386,329.624573 
	C475.718323,319.166351 478.353851,309.083160 481.045013,298.603302 
	C481.741455,294.476379 482.382263,290.746185 483.023071,287.015961 
z"/>
<path fill="#3684C8" opacity="1.000000" stroke="none" 
	d="
M28.997488,270.006104 
	C25.303188,270.636322 21.608889,271.266510 17.543995,271.958282 
	C14.809258,235.136749 20.609657,199.510895 34.356541,165.278427 
	C38.225140,155.644882 43.598511,146.615616 48.577576,137.132690 
	C53.348885,136.427551 57.771500,133.167816 62.526070,137.162689 
	C60.818359,141.086395 58.909946,144.543503 56.725922,148.203247 
	C52.305927,157.603256 48.161537,166.800629 43.864502,176.332855 
	C40.795269,187.098099 37.878689,197.528488 34.673988,208.204529 
	C33.250839,216.625290 32.115807,224.800369 30.691305,233.270294 
	C29.943756,241.708939 29.485678,249.852707 29.020000,258.457336 
	C29.007433,262.614136 29.002460,266.310120 28.997488,270.006104 
z"/>
<path fill="#3684C8" opacity="1.000000" stroke="none" 
	d="
M17.130138,277.248352 
	C17.335400,277.167847 17.499561,277.322540 17.612200,277.508484 
	C17.643318,277.559845 17.521042,277.704132 17.324217,277.898865 
	C17.142721,277.826416 17.106157,277.660889 17.130138,277.248352 
z"/>
<path fill="#4090D0" opacity="1.000000" stroke="none" 
	d="
M444.854523,106.732193 
	C444.541138,106.853554 444.321259,106.642647 444.110138,106.133774 
	C444.323944,106.098198 444.600342,106.286240 444.854523,106.732193 
z"/>
<path fill="#3A9CEE" opacity="1.000000" stroke="none" 
	d="
M428.685242,106.856880 
	C432.237396,111.455597 435.491211,115.910355 438.570312,120.908859 
	C436.254639,121.968414 434.113953,122.934204 431.972656,122.935547 
	C315.739990,123.008286 199.507278,123.000015 83.274567,122.999733 
	C82.108925,122.999725 80.941833,122.957359 79.777924,123.001167 
	C76.973129,123.106773 75.846992,121.665955 76.000305,118.998817 
	C85.557175,105.621475 96.784821,93.806427 109.891266,83.485565 
	C112.246361,84.124245 114.105446,84.943718 115.965080,84.944946 
	C210.043259,85.007233 304.121490,85.005707 398.199677,84.957809 
	C400.135651,84.956825 402.071289,84.330254 404.007080,83.995529 
	C405.470886,84.961479 407.129822,85.726463 408.365967,86.926849 
	C415.097076,93.462982 421.724060,100.106400 428.685242,106.856880 
z"/>
<path fill="#3FA1F2" opacity="1.000000" stroke="none" 
	d="
M403.858337,83.694809 
	C402.071289,84.330254 400.135651,84.956825 398.199677,84.957809 
	C304.121490,85.005707 210.043259,85.007233 115.965080,84.944946 
	C114.105446,84.943718 112.246361,84.124245 110.191483,83.339310 
	C117.097275,77.620369 123.999153,71.957047 131.340393,66.936127 
	C147.889816,55.617428 165.698639,46.512199 184.886627,40.799042 
	C198.950226,36.611652 213.429031,33.473236 227.932907,31.219561 
	C239.506088,29.421270 251.409637,28.931622 263.143158,29.145285 
	C291.436188,29.660498 318.635651,35.670544 344.743103,46.814190 
	C364.748779,55.353386 383.115326,66.499413 400.217163,79.833763 
	C401.516632,80.846962 402.551666,82.199348 403.858337,83.694809 
z"/>
<path fill="#3799EC" opacity="1.000000" stroke="none" 
	d="
M75.698639,119.151741 
	C75.846992,121.665955 76.973129,123.106773 79.777924,123.001167 
	C80.941833,122.957359 82.108925,122.999725 83.274567,122.999733 
	C199.507278,123.000015 315.739990,123.008286 431.972656,122.935547 
	C434.113953,122.934204 436.254639,121.968414 438.713013,121.219193 
	C444.706787,130.050339 450.383148,139.114899 455.678253,148.739868 
	C453.671722,149.533524 452.046509,149.970566 450.421173,149.970963 
	C321.430298,150.002548 192.439453,150.009689 63.448650,149.916824 
	C61.299149,149.915268 59.150551,148.667068 57.001534,148.000610 
	C58.909946,144.543503 60.818359,141.086395 62.865990,137.313828 
	C67.135796,131.100464 71.266380,125.202568 75.698639,119.151741 
z"/>
<path fill="#207FD8" opacity="1.000000" stroke="none" 
	d="
M434.011292,400.003082 
	C424.619995,412.316162 413.859375,423.280670 401.704803,432.881622 
	C400.801239,433.595337 400.083984,434.544830 399.127655,435.684692 
	C395.888062,437.967560 392.800934,439.950500 388.895142,441.967834 
	C300.377502,442.005310 212.678452,442.008331 124.979416,442.011414 
	C124.544533,442.006012 124.109650,442.000610 123.349030,441.990112 
	C113.205597,433.346191 103.177711,424.930786 93.656975,415.976196 
	C88.734940,411.346893 84.712883,405.760712 80.561028,400.313599 
	C83.791710,400.346924 86.745468,400.957672 89.699501,400.958984 
	C199.516571,401.007660 309.333649,401.012939 419.150696,400.957703 
	C424.104401,400.955200 429.057770,400.335388 434.011292,400.003082 
z"/>
<path fill="#1D7AD5" opacity="1.000000" stroke="none" 
	d="
M125.135757,442.311829 
	C212.678452,442.008331 300.377502,442.005310 388.547180,442.005920 
	C382.313538,446.522980 375.811401,451.378113 368.867126,455.485809 
	C348.087189,467.777527 325.563538,475.638885 301.989838,480.444489 
	C283.570618,484.199341 264.868988,486.071014 246.108780,484.869873 
	C216.777847,482.991913 188.252090,477.011841 161.799759,463.750732 
	C149.251755,457.460175 137.438309,449.704285 125.135757,442.311829 
z"/>
<path fill="#2988E0" opacity="1.000000" stroke="none" 
	d="
M480.989410,299.000000 
	C478.353851,309.083160 475.718323,319.166351 472.612061,329.634705 
	C469.187836,330.346588 466.234406,330.958038 463.280792,330.959076 
	C327.312714,331.006165 191.344620,331.010193 55.376560,330.957855 
	C50.590118,330.955994 45.803917,330.332733 41.017601,329.999115 
	C38.344189,319.940796 35.670776,309.882507 33.471275,299.412109 
	C182.959930,299.000000 331.974701,299.000000 480.989410,299.000000 
z"/>
<path fill="#2785DE" opacity="1.000000" stroke="none" 
	d="
M41.046135,330.367126 
	C45.803917,330.332733 50.590118,330.955994 55.376560,330.957855 
	C191.344620,331.010193 327.312714,331.006165 463.280792,330.959076 
	C466.234406,330.958038 469.187836,330.346588 472.562683,330.009705 
	C468.084717,341.123535 463.185425,352.247498 457.673462,363.685730 
	C323.375305,364.000000 189.689804,364.000000 56.004295,364.000000 
	C51.027756,352.911713 46.051212,341.823395 41.046135,330.367126 
z"/>
<path fill="#2C8CE3" opacity="1.000000" stroke="none" 
	d="
M28.998352,270.438904 
	C29.002460,266.310120 29.007433,262.614136 29.440006,258.468872 
	C32.654415,258.346375 35.441132,258.958252 38.228043,258.959137 
	C184.525253,259.005432 330.822479,259.005219 477.119720,258.958282 
	C479.737610,258.957428 482.355286,258.331909 484.973083,257.997833 
	C484.421143,265.410858 483.869202,272.823914 482.725159,280.628235 
	C479.181305,281.346375 476.229614,281.958160 473.277771,281.959106 
	C330.059570,282.005890 186.841385,282.018341 43.623268,281.915985 
	C39.086014,281.912750 34.549641,280.667267 30.012859,280.000916 
	C29.674978,276.957825 29.337097,273.914764 28.998352,270.438904 
z"/>
<path fill="#2B8AE1" opacity="1.000000" stroke="none" 
	d="
M30.014870,280.417694 
	C34.549641,280.667267 39.086014,281.912750 43.623268,281.915985 
	C186.841385,282.018341 330.059570,282.005890 473.277771,281.959106 
	C476.229614,281.958160 479.181305,281.346375 482.553131,281.008026 
	C482.983673,282.716064 482.994171,284.435608 483.013855,286.585571 
	C482.382263,290.746185 481.741455,294.476379 481.045044,298.603302 
	C331.974701,299.000000 182.959930,299.000000 33.477669,299.000000 
	C32.012394,292.944824 31.014637,286.889648 30.014870,280.417694 
z"/>
<path fill="#2482DB" opacity="1.000000" stroke="none" 
	d="
M56.039146,364.352661 
	C189.689804,364.000000 323.375305,364.000000 457.529175,364.000000 
	C454.538910,369.897888 451.080261,375.795746 446.848022,381.847656 
	C319.711273,382.003326 193.348068,382.004944 66.984863,382.006561 
	C64.473190,378.262268 61.909153,374.551605 59.471550,370.759705 
	C58.222401,368.816528 57.199280,366.728058 56.039146,364.352661 
z"/>
<path fill="#2280DA" opacity="1.000000" stroke="none" 
	d="
M67.026016,382.355621 
	C193.348068,382.004944 319.711273,382.003326 446.544830,382.004150 
	C442.860779,387.877136 438.706329,393.747650 434.281616,399.810638 
	C429.057770,400.335388 424.104401,400.955200 419.150696,400.957703 
	C309.333649,401.012939 199.516571,401.007660 89.699501,400.958984 
	C86.745468,400.957672 83.791710,400.346924 80.413475,400.011780 
	C75.681816,394.237030 71.374496,388.470856 67.026016,382.355621 
z"/>
<path fill="#3393E8" opacity="1.000000" stroke="none" 
	d="
M34.962105,207.958862 
	C37.878689,197.528488 40.795269,187.098099 44.285690,176.343719 
	C47.813015,176.346481 50.766399,176.958008 53.719994,176.959061 
	C187.688477,177.006271 321.656982,177.010376 455.625458,176.957779 
	C460.411896,176.955902 465.198090,176.331802 469.984375,175.997696 
	C472.987976,186.388885 475.991547,196.780075 478.808044,207.924164 
	C476.594910,209.118057 474.569366,209.941681 472.542816,209.944229 
	C417.053711,210.013977 361.564453,210.000000 306.075256,210.000000 
	C217.925735,210.000000 129.776199,210.014938 41.626781,209.914597 
	C39.404484,209.912064 37.183628,208.639236 34.962105,207.958862 
z"/>
<path fill="#3091E6" opacity="1.000000" stroke="none" 
	d="
M34.673985,208.204529 
	C37.183628,208.639236 39.404484,209.912064 41.626781,209.914597 
	C129.776199,210.014938 217.925735,210.000000 306.075256,210.000000 
	C361.564453,210.000000 417.053711,210.013977 472.542816,209.944229 
	C474.569366,209.941681 476.594910,209.118057 478.818298,208.328918 
	C480.343262,216.020554 481.670807,224.060364 482.839813,232.899445 
	C480.368439,234.465836 478.056122,235.902634 475.742767,235.904327 
	C330.230957,236.010651 184.719101,236.000015 39.207241,236.000000 
	C38.374794,236.000000 37.428860,236.257629 36.731506,235.950653 
	C34.760044,235.082840 32.890484,233.983551 30.980776,232.975449 
	C32.115807,224.800369 33.250839,216.625290 34.673985,208.204529 
z"/>
<path fill="#3697EB" opacity="1.000000" stroke="none" 
	d="
M469.845642,175.668976 
	C465.198090,176.331802 460.411896,176.955902 455.625458,176.957779 
	C321.656982,177.010376 187.688477,177.006271 53.719994,176.959061 
	C50.766399,176.958008 47.813015,176.346481 44.438339,176.008865 
	C48.161537,166.800629 52.305927,157.603256 56.725922,148.203247 
	C59.150551,148.667068 61.299149,149.915268 63.448650,149.916824 
	C192.439453,150.009689 321.430298,150.002548 450.421173,149.970963 
	C452.046509,149.970566 453.671722,149.533524 455.688293,149.125183 
	C459.364014,154.705521 462.764557,160.398987 465.883484,166.242752 
	C467.425690,169.132355 468.448853,172.298981 469.845642,175.668976 
z"/>
<path fill="#2F8FE4" opacity="1.000000" stroke="none" 
	d="
M30.691305,233.270294 
	C32.890484,233.983551 34.760044,235.082840 36.731506,235.950653 
	C37.428860,236.257629 38.374794,236.000000 39.207241,236.000000 
	C184.719101,236.000015 330.230957,236.010651 475.742767,235.904327 
	C478.056122,235.902634 480.368439,234.465836 482.841248,233.347992 
	C483.664032,241.023834 484.326813,249.050446 484.981323,257.537445 
	C482.355286,258.331909 479.737610,258.957428 477.119720,258.958282 
	C330.822479,259.005219 184.525253,259.005432 38.228043,258.959137 
	C35.441132,258.958252 32.654415,258.346375 29.447603,258.008026 
	C29.485678,249.852707 29.943756,241.708939 30.691305,233.270294 
z"/>
</svg>